<?xml version="1.0" standalone="no"?>
<!DOCTYPE svg PUBLIC "-//W3C//DTD SVG 20010904//EN"
 "http://www.w3.org/TR/2001/REC-SVG-20010904/DTD/svg10.dtd">
<svg version="1.0" xmlns="http://www.w3.org/2000/svg"
 width="1385.000000pt" height="1385.000000pt" viewBox="0 0 1385.000000 1385.000000"
 preserveAspectRatio="xMidYMid meet">
<metadata>
Created by potrace 1.14, written by Peter Selinger 2001-2017
</metadata>
<g transform="translate(0.000000,1385.000000) scale(0.100000,-0.100000)"
fill="#000000" stroke="none">
<path d="M0 6925 l0 -6925 6925 0 6925 0 0 6925 0 6925 -6925 0 -6925 0 0
-6925z m6670 1015 l0 -2500 1668 0 c917 0 1697 -3 1735 -7 l67 -6 0 -853 0
-854 -2805 0 -2805 0 0 3360 0 3360 1070 0 1070 0 0 -2500z m2590 1246 c144
-23 309 -63 403 -97 404 -148 671 -411 807 -794 70 -200 98 -375 107 -677 l6
-218 -1161 0 c-638 0 -1163 -4 -1166 -8 -11 -18 16 -217 39 -290 62 -197 173
-304 363 -353 108 -27 337 -28 444 0 206 53 315 169 336 356 l7 60 568 3 569
2 -7 -67 c-11 -122 -25 -207 -47 -278 -133 -451 -545 -734 -1194 -822 -99 -13
-200 -17 -434 -17 -266 0 -323 3 -443 22 -242 38 -400 85 -572 168 -297 143
-503 343 -634 619 -112 234 -161 480 -161 809 0 366 70 650 224 906 135 225
318 389 567 511 182 89 414 152 654 179 131 14 603 5 725 -14z"/>
<path d="M8705 8455 c-241 -45 -391 -205 -439 -467 l-7 -38 572 0 572 0 -8 73
c-21 216 -135 361 -334 423 -69 22 -260 27 -356 9z"/>
</g>
</svg>
